<?xml version="1.0" encoding="UTF-8"?>
<svg version="1.1" xmlns="http://www.w3.org/2000/svg" width="1536" height="1024">
<path d="M0 0 C3.70602591 0.01715422 7.41140808 0.00686401 11.11741257 -0.01032162 C29.15162373 -0.08117001 46.81377066 0.70766283 64.68505859 3.39111328 C65.40310669 3.49806519 66.12115479 3.60501709 66.86096191 3.71520996 C70.57317359 4.28412134 74.25502121 4.95601663 77.93505859 5.70361328 C78.9938623 5.91381104 80.05266602 6.12400879 81.14355469 6.34057617 C102.30035064 10.66328923 122.2372888 17.00023814 141.68505859 26.39111328 C141.68505859 28.04111328 141.68505859 29.69111328 141.68505859 31.39111328 C140.99538498 31.39697952 140.30571136 31.40284576 139.59513855 31.40888977 C133.04966716 31.46714069 126.50451118 31.53939807 119.95936108 31.62682819 C116.5955724 31.67128271 113.23189792 31.71059091 109.86791992 31.73754883 C105.98766531 31.77132767 102.10802135 31.8236567 98.22802734 31.87939453 C97.03799606 31.88578445 95.84796478 31.89217438 94.62187195 31.89875793 C84.98911414 32.06596274 75.05215863 33.03001779 67.39176941 39.43170166 C60.28518586 47.59050763 59.9473227 58.06852396 59.97802734 68.34423828 C59.96487608 69.73958461 59.94956151 71.13491204 59.9322052 72.5302124 C59.8927413 76.16007753 59.88219015 79.78944039 59.87817383 83.41949463 C59.86876844 87.14065419 59.83130982 90.86152746 59.79638672 94.58251953 C59.73220561 101.85205398 59.69864283 109.12128918 59.68505859 116.39111328 C58.76543839 116.39475891 57.84581818 116.39840454 56.89833069 116.40216064 C48.20367934 116.44013134 39.50939964 116.49708685 30.81501102 116.57501602 C26.34581665 116.61441395 21.87681704 116.6466399 17.4074707 116.66210938 C13.08892353 116.67732688 8.77091208 116.71186181 4.45260429 116.7594223 C2.81055818 116.77418383 1.16843556 116.78215128 -0.47367668 116.78299713 C-14.36622894 116.58897418 -14.36622894 116.58897418 -26.17515564 123.14068604 C-30.39565962 127.65724468 -32.53488717 132.1176873 -32.63378906 138.36499023 C-32.65365875 139.32560867 -32.67352844 140.28622711 -32.69400024 141.2759552 C-32.70555145 142.30009018 -32.71710266 143.32422516 -32.72900391 144.37939453 C-32.74837006 145.43772995 -32.76773621 146.49606537 -32.78768921 147.58647156 C-32.84735389 150.95877076 -32.89381834 154.33110434 -32.93994141 157.70361328 C-32.97813321 159.99334151 -33.01718564 162.28305556 -33.05712891 164.57275391 C-33.15304466 170.17874759 -33.23813052 175.78482704 -33.31494141 181.39111328 C-34.27436646 181.39920013 -35.2337915 181.40728699 -36.22229004 181.4156189 C-45.28505815 181.49326417 -54.34767953 181.58104923 -63.41025543 181.67864037 C-68.06888377 181.72848459 -72.72749072 181.77481531 -77.38623047 181.81298828 C-81.88617682 181.84999154 -86.38593901 181.89639149 -90.88572693 181.94917679 C-92.59839125 181.96764109 -94.31109494 181.98277812 -96.02381897 181.99445724 C-98.43159656 182.01145687 -100.83895963 182.04052316 -103.24658203 182.07226562 C-103.94717743 182.07442581 -104.64777283 182.076586 -105.36959839 182.07881165 C-111.64358337 182.18377101 -118.36857184 182.83208441 -123.18994141 187.20361328 C-123.74423828 187.68443359 -124.29853516 188.16525391 -124.86962891 188.66064453 C-127.90416465 192.29388597 -128.56555809 196.08716631 -128.61791992 200.71508789 C-128.6429509 202.28250732 -128.6429509 202.28250732 -128.66848755 203.8815918 C-128.67685638 205.00750732 -128.68522522 206.13342285 -128.69384766 207.29345703 C-128.71043427 208.47166016 -128.72702087 209.64986328 -128.74411011 210.86376953 C-128.7787122 213.38258677 -128.80909864 215.90146481 -128.83566284 218.42037964 C-128.89138505 223.63299072 -128.96949207 228.8451825 -129.04682922 234.05751038 C-129.08484012 236.62694371 -129.12186348 239.19639185 -129.15788269 241.76585388 C-129.29192605 251.28908045 -129.46529383 260.80876008 -129.75244141 270.32861328 C-129.77959229 271.45323975 -129.80674316 272.57786621 -129.8347168 273.73657227 C-130.04263481 280.13794194 -130.83816948 286.15690895 -132.31494141 292.39111328 C-142.6280846 288.56526984 -151.01302992 281.41375751 -159.31494141 274.39111328 C-160.39798535 273.53657971 -161.48125877 272.68233674 -162.56494141 271.82861328 C-170.52672097 264.77158139 -176.25315592 256.02074839 -182.09912109 247.21386719 C-183.07258927 245.75444683 -184.06897907 244.31032597 -185.07275391 242.87158203 C-205.26229828 212.25628934 -208.59343652 166.45591618 -202.31494141 131.39111328 C-202.12029297 130.18455078 -201.92564453 128.97798828 -201.72509766 127.73486328 C-196.29058088 97.12149068 -181.53604468 69.08648067 -159.31494141 47.39111328 C-158.52216797 46.61251953 -157.72939453 45.83392578 -156.91259766 45.03173828 C-150.40659212 38.89664523 -143.66179782 34.02682906 -136.02294922 29.42285156 C-134.40966033 28.44832914 -132.8109904 27.44972329 -131.21337891 26.44970703 C-125.08508886 22.70643752 -118.94917166 19.89335729 -112.20166016 17.44189453 C-110.04017787 16.65510328 -107.91536619 15.76630292 -105.81494141 14.82861328 C-94.52627267 10.19219576 -82.91152384 8.00807858 -70.94458008 5.921875 C-68.89166679 5.50751853 -66.85954303 4.98980745 -64.84057617 4.43310547 C-44.09922106 -0.79316493 -21.26524801 -0.09927709 0 0 Z " fill="#7049F3" transform="translate(759.31494140625,217.60888671875)"/>
<path d="M0 0 C8.9911822 1.98676311 16.05238925 11.69716591 21.0390625 18.9765625 C25.54378281 26.04576778 29.12436338 33.13342797 32 41 C32.43183594 42.17433594 32.86367188 43.34867187 33.30859375 44.55859375 C36.35813001 53.25474907 38.48521893 61.89237884 40 71 C40.309375 72.70542969 40.309375 72.70542969 40.625 74.4453125 C45.77482054 107.56151959 42.38921743 145.87642546 27 176 C26.39340802 177.28470499 25.79072769 178.57126221 25.19140625 179.859375 C19.21584783 192.52957411 11.71483359 203.47483422 2.12890625 213.7109375 C0.76300201 215.17959784 -0.56686517 216.68311447 -1.84765625 218.2265625 C-7.70085085 225.26033775 -14.69371558 230.57302798 -22 236 C-22.86882812 236.65097656 -23.73765625 237.30195312 -24.6328125 237.97265625 C-76.06476518 275.23111702 -147.22716213 285.02785388 -208.92529297 275.50927734 C-222.28174085 273.29698972 -235.37278854 270.76122789 -247.9765625 265.72265625 C-254.0577642 264.26913905 -259.20659454 268.00512725 -264.5 270.75 C-270.87894715 274.00122918 -277.30617115 276.94615825 -283.91796875 279.69921875 C-286.40970263 280.75086309 -288.82085096 281.87858464 -291.25 283.0625 C-297.77421387 285.98505677 -304.82434105 287.57278873 -311.71630859 289.39306641 C-313.85261361 289.96082932 -315.98349908 290.54502616 -318.11328125 291.13671875 C-337.37034239 296.42798478 -337.37034239 296.42798478 -347 296 C-345.52677875 292.54180696 -343.59537041 290.44371213 -340.875 287.875 C-336.12427806 283.21491187 -332.03437694 278.28446557 -328 273 C-327.55785156 272.42894531 -327.11570312 271.85789062 -326.66015625 271.26953125 C-319.41766616 261.90728796 -312.75054966 252.29505956 -306.44580078 242.27978516 C-304.88802274 239.82343066 -303.30324053 237.38587417 -301.71484375 234.94921875 C-300.62206728 233.25802475 -299.5296124 231.5666229 -298.4375 229.875 C-297.92445313 229.09342529 -297.41140625 228.31185059 -296.8828125 227.5065918 C-296.16544922 226.38571167 -296.16544922 226.38571167 -295.43359375 225.2421875 C-295.01134521 224.5910498 -294.58909668 223.93991211 -294.15405273 223.26904297 C-291.30921344 217.6756568 -290.71127435 212.12116812 -290.76049805 205.94091797 C-290.75747681 204.78100342 -290.75747681 204.78100342 -290.75439453 203.59765625 C-290.75086851 201.93078849 -290.7515919 200.26390729 -290.75617027 198.59704208 C-290.76179378 195.95696454 -290.75255707 193.31732132 -290.7389679 190.67727661 C-290.70195456 183.1756177 -290.68332585 175.67411112 -290.69458008 168.17236328 C-290.70043197 163.57345351 -290.68217462 158.97516099 -290.64869118 154.37637711 C-290.64074353 152.62772471 -290.64200559 150.87900494 -290.65271568 149.13036728 C-290.66704937 146.68632522 -290.65077049 144.2442277 -290.62768555 141.80029297 C-290.64533714 140.72166489 -290.64533714 140.72166489 -290.66334534 139.62124634 C-290.59428834 135.88969997 -290.06590933 134.09005029 -287.84225464 131.05192566 C-284.53120906 128.66156299 -282.93996673 128.37256375 -278.89624023 128.36889648 C-277.68826279 128.35636337 -276.48028534 128.34383026 -275.23570251 128.33091736 C-273.93975662 128.34417557 -272.64381073 128.35743378 -271.30859375 128.37109375 C-269.95768544 128.37026449 -268.60677723 128.36780293 -267.25587463 128.36378479 C-264.43044513 128.36093179 -261.60581057 128.37557887 -258.78051758 128.40307617 C-255.16312919 128.43719287 -251.5471585 128.4311263 -247.92970181 128.4124136 C-245.14232102 128.40183496 -242.355269 128.4107883 -239.56791878 128.42579842 C-237.58707627 128.43348325 -235.6061939 128.42613314 -233.62535095 128.41856384 C-232.42052567 128.43440018 -231.21570038 128.45023651 -229.97436523 128.46655273 C-228.38482277 128.4758506 -228.38482277 128.4758506 -226.76316833 128.4853363 C-224 129 -224 129 -221.66072083 130.36238098 C-218.99620115 134.59427093 -219.43023124 138.83397888 -219.45410156 143.73535156 C-219.44376389 144.82833557 -219.43342621 145.92131958 -219.42277527 147.04742432 C-219.39326545 150.66197348 -219.39184631 154.27596466 -219.390625 157.890625 C-219.37564896 160.39598667 -219.35892304 162.90133844 -219.34051514 165.40667725 C-219.30123749 171.32809429 -219.27961588 177.24940926 -219.26654124 183.17092681 C-219.24911178 190.57499802 -219.20428144 197.97886058 -219.16015625 205.3828125 C-219.08477123 218.58849281 -219.03376832 231.79415108 -219 245 C-216.01468512 245.49872525 -213.02844829 245.99002734 -210.04125977 246.47729492 C-209.20761147 246.61733696 -208.37396317 246.757379 -207.5150528 246.90166473 C-199.30944503 248.22930439 -191.23599866 248.42534233 -182.9375 248.3125 C-181.44832387 248.3017974 -179.95914743 248.29113707 -178.4699707 248.28051758 C-163.57659771 248.12714177 -149.43657766 246.83737541 -135 243 C-134.2167334 242.79890625 -133.4334668 242.5978125 -132.62646484 242.390625 C-110.47927126 236.69976816 -90.7476462 229.68488076 -71 218 C-70.30616211 217.58959473 -69.61232422 217.17918945 -68.89746094 216.75634766 C-39.79077255 199.29382651 -13.65059276 173.38286079 -4.45703125 139.8046875 C-1.84144841 128.96994229 -0.85370213 118.28453976 -0.79467773 107.16796875 C-0.78477814 106.00612564 -0.77487854 104.84428253 -0.76467896 103.64723206 C-0.7332261 99.82734172 -0.70837087 96.00743897 -0.68359375 92.1875 C-0.66301021 89.53092032 -0.6420593 86.87434608 -0.62062073 84.21777344 C-0.57086623 77.95297939 -0.52586404 71.68816072 -0.48259836 65.42331886 C-0.43307785 58.28660166 -0.37821505 51.14992859 -0.32291877 44.01325417 C-0.20936372 29.34221128 -0.10246787 14.67112446 0 0 Z " fill="#3D1FC9" transform="translate(940,288)"/>
<path d="M0 0 C1.65212746 -0.01429802 1.65212746 -0.01429802 3.33763123 -0.02888489 C4.51793411 -0.02797348 5.698237 -0.02706207 6.91430664 -0.02612305 C8.13598038 -0.03040817 9.35765411 -0.0346933 10.61634827 -0.03910828 C13.1976764 -0.04484646 15.7790207 -0.04535562 18.36035156 -0.04101562 C22.30635193 -0.0378563 26.25160209 -0.06132042 30.19750977 -0.08666992 C32.70727445 -0.08894303 35.21704114 -0.08964636 37.72680664 -0.08862305 C39.49422462 -0.10243767 39.49422462 -0.10243767 41.29734802 -0.11653137 C51.7154862 -0.05778238 51.7154862 -0.05778238 56.38696289 3.2746582 C58.79693466 6.88961586 58.65513339 8.57644855 58.69476318 12.88117981 C58.70790995 13.89313771 58.70790995 13.89313771 58.7213223 14.9255392 C58.74807966 17.19141897 58.76045164 19.45714319 58.77270508 21.72314453 C58.78850955 23.34617819 58.80504761 24.96920484 58.82226562 26.59222412 C58.87471286 31.93031097 58.90533716 37.26842908 58.93383789 42.60668945 C58.94455997 44.44730841 58.95531499 46.28792718 58.9661026 48.12854576 C59.00937521 55.79165969 59.04683915 63.45476524 59.06934738 71.11797047 C59.10175929 82.07971319 59.16792788 93.04003039 59.28214908 104.00123578 C59.35979676 111.71779908 59.39864264 119.4339833 59.40918851 127.15092677 C59.41646678 131.75407102 59.44018668 136.35569521 59.50539398 140.95841408 C59.56599608 145.29863509 59.57803054 149.63643474 59.55462646 153.97698975 C59.55418846 155.55957302 59.57051051 157.14227567 59.60593414 158.72446251 C59.86756666 171.09608563 56.46542213 177.98876253 48.38696289 187.2746582 C47.36545702 188.45939838 47.36545702 188.45939838 46.32331467 189.6680727 C44.70019232 191.49162398 43.01647352 193.20267252 41.26196289 194.8996582 C40.63 195.51808594 39.99803711 196.13651367 39.34692383 196.77368164 C27.08794823 208.51356718 13.1801245 217.10433369 -1.61303711 225.2746582 C-2.8063554 225.94675344 -3.99912717 226.61982066 -5.19116211 227.29418945 C-12.31312493 231.2746582 -12.31312493 231.2746582 -14.61303711 231.2746582 C-14.70427189 202.82352399 -14.77506771 174.37240814 -14.81729843 145.92115631 C-14.8223013 142.56283443 -14.82747859 139.20451285 -14.83276367 135.84619141 C-14.83381291 135.17760525 -14.83486216 134.50901909 -14.83594319 133.82017275 C-14.85335221 122.99207368 -14.88489259 112.16405949 -14.92164829 101.33601079 C-14.95904396 90.22684361 -14.9809706 79.11771108 -14.98939109 68.00848264 C-14.99461265 61.76796876 -15.00691241 55.52764745 -15.03595734 49.28719521 C-15.06306236 43.41609823 -15.07149196 37.54527355 -15.06546783 31.67411995 C-15.06657026 29.51699088 -15.07455315 27.35985291 -15.08985901 25.20277786 C-15.10970969 22.26146089 -15.10499397 19.32117705 -15.09405518 16.37983704 C-15.10570654 15.52282883 -15.11735791 14.66582061 -15.12936234 13.78284246 C-15.08887931 9.76597097 -14.92151392 7.76492849 -12.73292255 4.28654289 C-8.84171933 0.59358287 -5.23737392 0.02498943 0 0 Z " fill="#4C1EE7" transform="translate(852.613037109375,271.725341796875)"/>
<path d="M0 0 C1.20474976 -0.01583633 2.40949951 -0.03167267 3.65075684 -0.04798889 C4.94356567 -0.04302902 6.23637451 -0.03806915 7.56835938 -0.03295898 C8.91687448 -0.0381979 10.26538591 -0.04447536 11.6138916 -0.05174255 C14.43499034 -0.06213153 17.25558419 -0.05760723 20.07666016 -0.04296875 C23.68512176 -0.02577349 27.29199208 -0.04928966 30.90027618 -0.08445835 C33.6833951 -0.10645789 36.4661346 -0.10498517 39.24931335 -0.09669304 C41.22407183 -0.09547853 43.1988069 -0.11538459 45.17346191 -0.13563538 C46.98058655 -0.11683571 46.98058655 -0.11683571 48.82421875 -0.09765625 C49.88169312 -0.09669449 50.93916748 -0.09573273 52.02868652 -0.09474182 C55.98315534 0.76678779 57.36103946 2.43441598 59.91210938 5.53344727 C60.52734852 8.55376148 60.52734852 8.55376148 60.51338196 11.9811554 C60.52025528 13.28380844 60.5271286 14.58646149 60.53421021 15.92858887 C60.51651657 17.36499603 60.49834255 18.80139734 60.47973633 20.23779297 C60.47832542 21.75575209 60.47911867 23.27371462 60.48194885 24.79167175 C60.48338278 28.90724651 60.45399745 33.02209187 60.41907907 37.13749719 C60.38781133 41.44027519 60.38488451 45.74307013 60.37895203 50.04594421 C60.36341477 58.19161136 60.32238802 66.33694277 60.27220458 74.48246211 C60.21630735 83.75684022 60.18882368 93.03123441 60.1637274 102.30573905 C60.11147197 121.38183209 60.02353209 140.45761268 59.91210938 159.53344727 C58.65239298 160.01272701 57.39200672 160.49024631 56.13134766 160.96704102 C55.07864182 161.36620728 55.07864182 161.36620728 54.00466919 161.7734375 C37.08701722 167.91786435 18.55289043 169.7823571 0.68945312 169.61157227 C-1.02087097 169.60311279 -1.02087097 169.60311279 -2.76574707 169.59448242 C-5.53988532 169.5799391 -8.31384082 169.5595088 -11.08789062 169.53344727 C-11.20462378 148.08926855 -11.29282968 126.64514213 -11.34695148 105.2007103 C-11.37274766 95.24396909 -11.40792517 85.28742515 -11.46508789 75.33081055 C-11.51487961 66.653952 -11.54717135 57.97723629 -11.5583331 49.30023885 C-11.56485906 44.70454432 -11.58022603 40.10925847 -11.61654091 35.51369476 C-11.65043369 31.18968274 -11.66095731 26.86624841 -11.65342903 22.54211617 C-11.6548066 20.95378291 -11.66477948 19.36543069 -11.683918 17.77721214 C-11.70875344 15.6102629 -11.70283367 13.44550199 -11.68916321 11.27850342 C-11.69377217 10.06542385 -11.69838114 8.85234428 -11.70312977 7.60250473 C-11.08789062 4.53344727 -11.08789062 4.53344727 -8.73052502 2.14404774 C-5.5716794 0.21883317 -3.68206298 0.02158308 0 0 Z " fill="#424EF3" transform="translate(755.087890625,352.466552734375)"/>
<path d="M0 0 C1.81196617 -0.01879967 1.81196617 -0.01879967 3.66053772 -0.03797913 C5.60445656 -0.01809181 5.60445656 -0.01809181 7.58764648 0.00219727 C8.9385548 0.001368 10.28946301 -0.00109356 11.6403656 -0.00511169 C14.46579511 -0.00796469 17.29042967 0.00668239 20.11572266 0.03417969 C23.73311104 0.06829639 27.34908174 0.06222982 30.96653843 0.04351711 C33.75391921 0.03293847 36.54097123 0.04189182 39.32832146 0.05690193 C41.30916396 0.06458677 43.29004633 0.05723666 45.27088928 0.04966736 C47.07812721 0.07342186 47.07812721 0.07342186 48.921875 0.09765625 C50.51141747 0.10695412 50.51141747 0.10695412 52.1330719 0.11643982 C54.89624023 0.63110352 54.89624023 0.63110352 57.23551941 1.98774719 C59.90988211 6.24450934 59.46591815 10.53132968 59.44213867 15.45825195 C59.45247635 16.56098953 59.46281403 17.66372711 59.47346497 18.79988098 C59.50297614 22.44689442 59.50439395 26.09335487 59.50561523 29.74047852 C59.52059119 32.26826034 59.53731709 34.79603235 59.5557251 37.3237915 C59.59500381 43.29836338 59.61662453 49.27274714 59.62969899 55.24741292 C59.64557077 62.05037614 59.68398702 68.85315369 59.72429228 75.6560092 C59.80668447 89.64764477 59.86078074 103.63927592 59.89624023 117.63110352 C53.99737734 116.80567788 48.30806808 115.6449422 42.52124023 114.25610352 C41.62663086 114.04727539 40.73202148 113.83844727 39.81030273 113.62329102 C32.32777559 111.83966536 25.08101882 109.61010775 17.95874023 106.69360352 C15.49040008 105.68503442 13.02542394 104.68021468 10.53295898 103.73266602 C7.96384833 102.7487513 5.43038802 101.70201953 2.89624023 100.63110352 C2.01137939 100.26976318 2.01137939 100.26976318 1.10864258 99.90112305 C-0.83274117 99.09464132 -2.74896211 98.24310847 -4.66625977 97.38110352 C-5.86379883 96.86032227 -7.06133789 96.33954102 -8.29516602 95.80297852 C-11.10375977 93.63110352 -11.10375977 93.63110352 -11.77297974 90.00614929 C-12.15881419 85.82647973 -12.23485341 81.65373266 -12.20483398 77.45849609 C-12.2032579 76.6850737 -12.20168182 75.91165131 -12.20005798 75.11479187 C-12.19263301 72.58499581 -12.17663814 70.05537524 -12.15844727 67.52563477 C-12.15273838 66.65660711 -12.1470295 65.78757946 -12.14114761 64.89221764 C-12.10974836 60.30225327 -12.07088929 55.71241578 -12.02661133 51.12255859 C-11.98266908 46.38811265 -11.96701046 41.65399917 -11.95738029 36.91937733 C-11.94452054 33.26888197 -11.90983375 29.61882492 -11.86926651 25.9685421 C-11.85378932 24.22271769 -11.84668199 22.47679791 -11.84817123 20.73090553 C-11.84835066 18.29158513 -11.81743928 15.85450398 -11.77905273 13.41552734 C-11.78610733 12.698013 -11.79316193 11.98049866 -11.8004303 11.24124146 C-11.70727811 7.51994748 -11.16300708 5.711913 -8.94303894 2.684021 C-5.63378232 0.29129019 -4.04364555 0.00366719 0 0 Z " fill="#4FA4FC" transform="translate(661.103759765625,416.368896484375)"/>
<path d="M0 0 C0.79921875 -0.01611328 1.5984375 -0.03222656 2.421875 -0.04882812 C13.29983965 -0.05762907 21.75971636 4.08130108 29.79296875 11.24609375 C38.04906857 19.68807199 41.07548004 29.26607481 41.1875 40.875 C40.97810804 54.31319299 36.76101349 65.56816574 27.0625 75.0625 C16.02264312 83.94823847 3.22813502 84.77595514 -10.375 83.3125 C-19.25278244 81.5413439 -26.96968466 75.70996548 -32.453125 68.62890625 C-38.14596134 60.00593356 -40.92117247 52.78359678 -40.75 42.4375 C-40.73984863 41.55344482 -40.72969727 40.66938965 -40.71923828 39.75854492 C-40.42300723 27.31798886 -36.4937987 18.6143502 -28 9.5 C-20.20594361 2.08362916 -10.48937953 -0.04189049 0 0 Z " fill="#1E2A3C" transform="translate(475.375,661.6875)"/>
<path d="M0 0 C0.33 10.56 0.66 21.12 1 32 C3.97 29.525 3.97 29.525 7 27 C12.32243477 23.53619325 18.93631091 24.29256961 25 25 C32.0768137 27.2278858 37.56108996 30.55521358 41.81640625 36.6796875 C46.91927155 46.68332442 48.19709062 57.76985783 44.8984375 68.625 C41.34816137 76.21917353 36.25133467 82.47517144 28.2109375 85.53125 C19.97614771 87.27714183 11.50492151 86.8232619 4 83 C2.96982372 82.03111567 1.96152295 81.03705044 1 80 C0.67 81.65 0.34 83.3 0 85 C-5.28 85 -10.56 85 -16 85 C-16 57.28 -16 29.56 -16 1 C-2 0 -2 0 0 0 Z " fill="#5C82FB" transform="translate(1053,659)"/>
<path d="M0 0 C7.54516916 4.23047083 11.95960098 10.25285494 14.5625 18.5 C15.01317402 21.40814248 15.08767673 24.24780184 15.0625 27.1875 C15.05605469 27.97552002 15.04960938 28.76354004 15.04296875 29.57543945 C14.79457693 37.58525855 13.03565751 44.52048894 7.66015625 50.6796875 C0.37165516 57.42260021 -5.9514879 59.04699777 -15.78515625 58.86328125 C-21.4546788 58.29936082 -25.35697397 56.58052603 -29.4375 52.5 C-29.7675 61.41 -30.0975 70.32 -30.4375 79.5 C-35.7175 79.5 -40.9975 79.5 -46.4375 79.5 C-46.4375 52.77 -46.4375 26.04 -46.4375 -1.5 C-41.4875 -1.5 -36.5375 -1.5 -31.4375 -1.5 C-31.4375 0.81 -31.4375 3.12 -31.4375 5.5 C-30.7775 5.5 -30.1175 5.5 -29.4375 5.5 C-29.17582031 4.88640625 -28.91414062 4.2728125 -28.64453125 3.640625 C-23.23907565 -5.94574934 -8.29623899 -3.77195462 0 0 Z " fill="#1F2B3C" transform="translate(572.4375,686.5)"/>
<path d="M0 0 C8.68881828 4.37471897 14.64535663 10.06110527 18.171875 19.19140625 C20.51040532 27.55782527 19.70865213 35.82010923 16.234375 43.75390625 C11.8604829 51.04372641 6.36614559 55.98171401 -1.625 58.984375 C-10.88688687 61.25376768 -21.36833087 61.33755712 -29.6875 56.30078125 C-37.26340019 50.66157735 -42.26883316 44.23825081 -43.765625 34.75390625 C-44.60500883 24.13088461 -43.25956074 16.84793181 -36.578125 8.50390625 C-27.24720585 -1.59283348 -12.85392333 -4.25352857 0 0 Z " fill="#1F2A3D" transform="translate(762.765625,685.24609375)"/>
<path d="M0 0 C5.28 0 10.56 0 16 0 C16 10.89 16 21.78 16 33 C27.55 33 39.1 33 51 33 C51 22.11 51 11.22 51 0 C56.28 0 61.56 0 67 0 C67 26.73 67 53.46 67 81 C61.72 81 56.44 81 51 81 C51 69.78 51 58.56 51 47 C39.45 47 27.9 47 16 47 C16 58.22 16 69.44 16 81 C10.72 81 5.44 81 0 81 C0 54.27 0 27.54 0 0 Z " fill="#577EF9" transform="translate(888,663)"/>
<path d="M0 0 C6.09296639 2.84949255 9.92695821 6.19582899 13.14794922 12.14526367 C14.45894533 16.49637101 14.28026725 20.68455491 14.23046875 25.203125 C14.22763885 26.17267624 14.22480896 27.14222748 14.22189331 28.14115906 C14.21072616 31.2283478 14.18562777 34.31524314 14.16015625 37.40234375 C14.15012198 39.49934476 14.14099691 41.59635033 14.1328125 43.69335938 C14.11079813 48.82563335 14.07629196 53.95768885 14.03515625 59.08984375 C8.75515625 59.08984375 3.47515625 59.08984375 -1.96484375 59.08984375 C-1.97418945 57.93460205 -1.98353516 56.77936035 -1.99316406 55.58911133 C-2.03310985 51.29298693 -2.09888121 46.99757519 -2.17236328 42.7019043 C-2.20054634 40.84457572 -2.22177415 38.9871278 -2.23583984 37.12963867 C-2.25730659 34.45559714 -2.30397444 31.7829864 -2.35546875 29.109375 C-2.35669739 28.28210403 -2.35792603 27.45483307 -2.35919189 26.60249329 C-2.45957246 22.62959164 -2.68468766 20.54419188 -4.81542969 17.08862305 C-8.48132088 13.67964404 -11.99862124 13.86427509 -16.7421875 13.94140625 C-19.58278929 14.13111252 -21.54963823 14.55289478 -23.96484375 16.08984375 C-26.38874707 20.55512647 -26.30789684 24.93956039 -26.37890625 29.890625 C-26.3982724 30.72699997 -26.41763855 31.56337494 -26.43759155 32.4250946 C-26.49714567 35.08407545 -26.54367549 37.74310015 -26.58984375 40.40234375 C-26.62804581 42.21030484 -26.66709884 44.01824817 -26.70703125 45.82617188 C-26.8028272 50.24725073 -26.88694706 54.66841476 -26.96484375 59.08984375 C-32.24484375 59.08984375 -37.52484375 59.08984375 -42.96484375 59.08984375 C-42.96484375 39.61984375 -42.96484375 20.14984375 -42.96484375 0.08984375 C-38.01484375 0.08984375 -33.06484375 0.08984375 -27.96484375 0.08984375 C-27.63484375 2.06984375 -27.30484375 4.04984375 -26.96484375 6.08984375 C-26.05734375 5.30609375 -25.14984375 4.52234375 -24.21484375 3.71484375 C-17.32019038 -2.23962962 -8.63187988 -2.64983928 0 0 Z " fill="#1C283A" transform="translate(667.96484375,684.91015625)"/>
<path d="M0 0 C5.02494998 2.90569595 9.34172738 7.17190566 11.05906677 12.84771729 C11.51967559 15.09604045 11.62027106 17.10784088 11.61352539 19.40136719 C11.61344986 20.2619574 11.61337433 21.12254761 11.61329651 22.00921631 C11.60813522 22.92914368 11.60297394 23.84907104 11.59765625 24.796875 C11.5962413 25.74564514 11.59482635 26.69441528 11.59336853 27.67193604 C11.58777742 30.69798962 11.57522652 33.72396883 11.5625 36.75 C11.55748385 38.80338435 11.55292115 40.85676986 11.54882812 42.91015625 C11.53781089 47.94013276 11.52055233 52.97005378 11.5 58 C6.22 58 0.94 58 -4.5 58 C-4.5093457 56.8447583 -4.51869141 55.6895166 -4.52832031 54.49926758 C-4.5682661 50.20314318 -4.63403746 45.90773144 -4.70751953 41.61206055 C-4.73570259 39.75473197 -4.7569304 37.89728405 -4.77099609 36.03979492 C-4.79246284 33.36575339 -4.83913069 30.69314265 -4.890625 28.01953125 C-4.89185364 27.19226028 -4.89308228 26.36498932 -4.89434814 25.51264954 C-4.99472871 21.53974789 -5.21984391 19.45434813 -7.35058594 15.9987793 C-10.98958502 12.61480775 -14.55346229 12.71980114 -19.27734375 12.78125 C-22.35372002 13.08402165 -24.15392676 14.0093924 -26.5 16 C-29.19991573 19.83175292 -28.84988508 24.19973889 -28.9140625 28.703125 C-28.93342865 29.54091492 -28.9527948 30.37870483 -28.9727478 31.24188232 C-29.03240724 33.91115213 -29.07887413 36.58046539 -29.125 39.25 C-29.16319236 41.06251854 -29.20224482 42.87501918 -29.2421875 44.6875 C-29.33809752 49.12485415 -29.4221788 53.56229325 -29.5 58 C-34.78 58 -40.06 58 -45.5 58 C-45.5 38.53 -45.5 19.06 -45.5 -1 C-40.55 -1 -35.6 -1 -30.5 -1 C-30.5 1.31 -30.5 3.62 -30.5 6 C-29.84 6 -29.18 6 -28.5 6 C-28.314375 5.4225 -28.12875 4.845 -27.9375 4.25 C-22.15553944 -4.80002522 -8.74933388 -3.90477079 0 0 Z " fill="#1D293B" transform="translate(836.5,686)"/>
<path d="M0 0 C5.28 0 10.56 0 16 0 C16.03738281 2.60132813 16.07476563 5.20265625 16.11328125 7.8828125 C16.15955255 10.41479686 16.21076572 12.94663667 16.26245117 15.47851562 C16.2956122 17.23200627 16.32367142 18.98560138 16.34643555 20.73925781 C16.3801447 23.26672698 16.43246692 25.79324638 16.48828125 28.3203125 C16.49467117 29.09867462 16.5010611 29.87703674 16.50764465 30.6789856 C16.6615688 36.43585031 17.78517217 40.78517217 22 45 C27.69819225 45.79959862 32.48680043 46.12748203 37.1875 42.625 C40.23983184 38.20438147 40.20956915 34.73979135 40.31640625 29.4921875 C40.33718735 28.65156769 40.35796844 27.81094788 40.37937927 26.94485474 C40.44485439 24.25498765 40.5037502 21.56502157 40.5625 18.875 C40.60568716 17.05337511 40.64930152 15.23176029 40.69335938 13.41015625 C40.80053368 8.94020606 40.90180685 4.47015614 41 0 C46.28 0 51.56 0 57 0 C57 19.47 57 38.94 57 59 C52.05 59 47.1 59 42 59 C41.67 57.35 41.34 55.7 41 54 C40.278125 54.61875 39.55625 55.2375 38.8125 55.875 C31.69245622 61.25458863 23.52177678 60.94779604 15 60 C9.98129765 58.10449548 6.43871758 55.14180378 3.5625 50.625 C0.51058399 43.54455485 -0.29204736 37.29491808 -0.1953125 29.6875 C-0.1924826 28.83317383 -0.18965271 27.97884766 -0.18673706 27.09863281 C-0.17563879 24.39893947 -0.15055427 21.69959123 -0.125 19 C-0.11495679 17.15755691 -0.1058333 15.31510857 -0.09765625 13.47265625 C-0.0757335 8.98164006 -0.04127646 4.49087832 0 0 Z " fill="#5A80F9" transform="translate(967,685)"/>
<path d="M0 0 C5.76364958 2.96535594 10.33608095 8.05980822 12.65625 14.1640625 C14.42026378 22.71952934 14.21793882 32.58169807 10.125 40.4375 C6.16710194 46.43088849 1.31439671 49.21133511 -5.4375 51.1875 C-13.63403384 52.02817014 -19.15068267 50.77432656 -26.0625 46.4375 C-31.75203739 41.15324473 -34.06357253 34.06867396 -34.46899414 26.45776367 C-34.5965148 17.89178961 -33.07210549 11.00746907 -27.16015625 4.5703125 C-19.54628226 -2.39379982 -9.65138638 -3.8114797 0 0 Z " fill="#F5F7FA" transform="translate(485.875,678.5625)"/>
<path d="M0 0 C4.59900564 3.36512608 8.85426728 8.04399633 10.921875 13.40625 C11.80443358 20.22062055 12.06372969 26.61494623 8.234375 32.53125 C3.4717767 38.54305441 -1.05534201 41.79566567 -8.77734375 42.734375 C-16.73997812 43.18297412 -21.86207091 41.37438414 -28.078125 36.40625 C-32.49562758 31.87830986 -34.36348594 27.3456037 -34.390625 21.03125 C-34.22494684 13.7609023 -31.80486736 8.33365992 -26.9375 2.984375 C-19.30021025 -3.49769445 -8.72533729 -4.88618888 0 0 Z " fill="#7843F7" transform="translate(960.078125,231.59375)"/>
<path d="M0 0 C5.28 0 10.56 0 16 0 C16 19.47 16 38.94 16 59 C10.72 59 5.44 59 0 59 C0 39.53 0 20.06 0 0 Z " fill="#1B273A" transform="translate(694,685)"/>
<path d="M0 0 C5.28 0 10.56 0 16 0 C16 19.47 16 38.94 16 59 C10.72 59 5.44 59 0 59 C0 39.53 0 20.06 0 0 Z " fill="#1E2A3C" transform="translate(596,685)"/>
<path d="M0 0 C4.88290938 2.13072409 7.19735449 5.03656576 9.30859375 9.7890625 C10.9540138 15.0506882 10.43990407 19.53365311 8.875 24.75 C6.19687672 29.39208036 3.19814814 32.26728395 -2 34 C-6.94875272 34.47584161 -10.30826565 33.99150442 -14.421875 31.3046875 C-18.44533225 27.97836393 -19.77071793 24.89571357 -20.37890625 19.8671875 C-20.5576933 14.80347682 -20.5002621 11.05610887 -18.3125 6.4375 C-17.549375 5.633125 -16.78625 4.82875 -16 4 C-14.9790625 2.824375 -14.9790625 2.824375 -13.9375 1.625 C-9.38310492 -0.8944526 -5.08338402 -0.71765422 0 0 Z " fill="#F5F8FC" transform="translate(1073,698)"/>
<path d="M0 0 C4.22427567 3.52022973 5.9975226 6.6223405 6.6015625 12.01171875 C6.87713714 22.99712592 6.87713714 22.99712592 3.25 27.875 C-1.40327325 32.07429538 -4.28067768 33.23533694 -10.4296875 33.15625 C-14.03039012 32.7198012 -16.06504488 31.24031761 -18.75 28.875 C-23.2678041 22.33197338 -23.43339338 16.72934314 -22.75 8.875 C-21.32390059 4.50803237 -18.78893924 1.14690332 -14.75 -1.125 C-10.02795122 -3.14873519 -4.57854716 -1.87304202 0 0 Z " fill="#F4F6F9" transform="translate(758.75,699.125)"/>
<path d="M0 0 C4.42681854 1.53976297 6.74392273 4.66042394 9.046875 8.625 C11.11317741 13.77381912 10.87442453 19.0738531 9.30078125 24.33984375 C7.22974878 29.03243631 4.76767758 31.84105166 0 34 C-4.81018793 34.82904496 -8.04922159 34.51060322 -12.375 32.1875 C-13.24125 31.465625 -14.1075 30.74375 -15 30 C-15.5775 29.54625 -16.155 29.0925 -16.75 28.625 C-19.98581014 24.41844681 -20.44645935 19.45002634 -20.31640625 14.30859375 C-19.61509396 9.19161152 -17.17128108 5.41973464 -13.9375 1.5 C-9.36770291 -0.83351341 -5.02511424 -0.59967375 0 0 Z " fill="#F3F5F8" transform="translate(561,698)"/>
<path d="M0 0 C1.68117668 0.00022659 1.68117668 0.00022659 3.39631653 0.00045776 C4.59544174 0.01078033 5.79456696 0.02110291 7.0300293 0.03173828 C8.88388496 0.03598312 8.88388496 0.03598312 10.77519226 0.04031372 C14.04839802 0.0495986 17.32140449 0.06754445 20.59454346 0.08972168 C23.93955653 0.11024261 27.2845783 0.1191581 30.62963867 0.12939453 C37.18375279 0.15143284 43.73773412 0.18489418 50.29174805 0.22705078 C49.63174805 0.55705078 48.97174805 0.88705078 48.29174805 1.22705078 C48.29174805 1.88705078 48.29174805 2.54705078 48.29174805 3.22705078 C47.50453369 3.39720703 46.71731934 3.56736328 45.90625 3.74267578 C30.81427221 7.02539103 15.80366788 10.47907541 0.91674805 14.60205078 C-0.96210083 15.12025391 -0.96210083 15.12025391 -2.87890625 15.64892578 C-8.16907636 16.70906881 -8.16907636 16.70906881 -12.70825195 19.22705078 C-12.81824467 21.56689976 -12.86320571 23.87787419 -12.86647034 26.21876526 C-12.87140831 26.95874266 -12.87634629 27.69872006 -12.8814339 28.46112102 C-12.8968841 30.95934848 -12.90518974 33.4575501 -12.91357422 35.95581055 C-12.92314684 37.73918895 -12.93315655 39.52256505 -12.943573 41.30593872 C-12.97069488 46.16314797 -12.99166487 51.020367 -13.01157498 55.87761045 C-13.03338978 60.94787982 -13.06080044 66.01811878 -13.08763123 71.08836365 C-13.13761925 80.69666566 -13.18253533 90.3049845 -13.22565359 99.91331953 C-13.27497387 110.84906766 -13.32991125 121.78478528 -13.38533318 132.72050393 C-13.49924698 155.22265776 -13.60606545 177.72484085 -13.70825195 200.22705078 C-14.03825195 200.22705078 -14.36825195 200.22705078 -14.70825195 200.22705078 C-14.80164589 175.14936678 -14.87220698 150.0717088 -14.91550064 124.99388599 C-14.93613592 113.35011295 -14.96427506 101.70644788 -15.01000977 90.06274414 C-15.04984785 79.91544657 -15.07567774 69.7682272 -15.08460593 59.6208536 C-15.08982579 54.24664201 -15.10211456 48.87265414 -15.13117218 43.49851418 C-15.15829334 38.44161525 -15.16670358 33.38503252 -15.16068268 28.32806778 C-15.16178439 26.47087194 -15.16975785 24.61366568 -15.18507385 22.75653267 C-15.20495035 20.22241518 -15.20020007 17.68949441 -15.18927002 15.15534973 C-15.20092139 14.41896092 -15.21257275 13.6825721 -15.22457719 12.92386848 C-15.16805642 8.0820314 -14.15529514 5.61898089 -10.70825195 2.22705078 C-7.09503234 0.26690972 -4.07256804 -0.01838631 0 0 Z " fill="#7837F8" transform="translate(852.708251953125,271.77294921875)"/>
<path d="M0 0 C0.495 1.485 0.495 1.485 1 3 C-2.50316073 9.87919062 -7.80019219 13.60006406 -15 16 C-22.98705523 16.96039172 -28.37359841 15.97399146 -35.13671875 11.60546875 C-37 10 -37 10 -38 7 C-33.19339547 5.54312494 -28.50791054 4.49502324 -23.53515625 3.7109375 C-22.85698349 3.60278717 -22.17881073 3.49463684 -21.48008728 3.38320923 C-19.34150775 3.04310165 -17.20204876 2.70895009 -15.0625 2.375 C-13.60084881 2.14362455 -12.1392596 1.9118573 -10.67773438 1.6796875 C-7.11919388 1.11526506 -3.55983992 0.55617533 0 0 Z " fill="#3F29C8" transform="translate(969,258)"/>
<path d="M0 0 C3 1.4375 3 1.4375 5 4 C5.70514343 7.15002599 5.69951178 9.84930645 5 13 C2.83878582 15.85838005 1.33308076 16.77465717 -2.1953125 17.37109375 C-5.94370998 17.5752144 -8.27944811 17.45034493 -11.5 15.4375 C-13.51855692 12.15734501 -14 9.8522557 -14 6 C-10.32931307 0.17753107 -6.71738011 -0.87338785 0 0 Z " fill="#1C2739" transform="translate(608,659)"/>
<path d="M0 0 C2.5625 1.4375 2.5625 1.4375 4 4 C4.59799621 7.13373012 4.64305007 9.87087243 4 13 C1.83878582 15.85838005 0.33308076 16.77465717 -3.1953125 17.37109375 C-6.89022678 17.57230195 -9.30692109 17.38880037 -12.5625 15.5625 C-14.7133434 11.72838786 -14.88083178 8.28619036 -14 4 C-10.39172032 -0.77224086 -5.57083305 -0.9873678 0 0 Z " fill="#1D283A" transform="translate(707,659)"/>
<path d="M0 0 C0.66 0.33 1.32 0.66 2 1 C-0.31 3.64 -2.62 6.28 -5 9 C-4.01 9.33 -3.02 9.66 -2 10 C-2 10.33 -2 10.66 -2 11 C-4.31 11 -6.62 11 -9 11 C-7.59155282 7.78475695 -5.89655214 5.67816132 -3.375 3.25 C-2.74335937 2.63640625 -2.11171875 2.0228125 -1.4609375 1.390625 C-0.73777344 0.70226562 -0.73777344 0.70226562 0 0 Z " fill="#4C2CCE" transform="translate(602,573)"/>
<path d="M0 0 C0 0.99 0 1.98 0 3 C-2.93026082 5.7349101 -5.17727085 7.72575695 -9 9 C-7.83709195 5.51127585 -6.86032391 4.90023136 -3.9375 2.8125 C-3.20402344 2.28269531 -2.47054687 1.75289063 -1.71484375 1.20703125 C-1.14894531 0.80871094 -0.58304688 0.41039062 0 0 Z " fill="#4428C3" transform="translate(892,490)"/>
<path d="M0 0 C0.99 0.33 1.98 0.66 3 1 C2.2884375 1.5878125 2.2884375 1.5878125 1.5625 2.1875 C-0.35179633 4.40808374 -0.61266988 6.13375709 -1 9 C-1.66 8.67 -2.32 8.34 -3 8 C-2.25 2.25 -2.25 2.25 0 0 Z " fill="#2E3B4D" transform="translate(597,661)"/>
<path d="M0 0 C0.66 0 1.32 0 2 0 C1.67 0.99 1.34 1.98 1 3 C-2.49029418 4.47666292 -6.27436386 4.07164685 -10 4 C-10 3.67 -10 3.34 -10 3 C-9.04287109 2.80083984 -9.04287109 2.80083984 -8.06640625 2.59765625 C-7.24011719 2.42105469 -6.41382813 2.24445312 -5.5625 2.0625 C-4.73878906 1.88847656 -3.91507813 1.71445312 -3.06640625 1.53515625 C-1.02338796 1.19247006 -1.02338796 1.19247006 0 0 Z " fill="#3A36E8" transform="translate(803,513)"/>
<path d="M0 0 C0.66 0.99 1.32 1.98 2 3 C0.02 5.97 0.02 5.97 -2 9 C-2.99 8.67 -3.98 8.34 -5 8 C-3.35 5.36 -1.7 2.72 0 0 Z " fill="#5033CD" transform="translate(925,452)"/>
<path d="M0 0 C0.93065133 2.60582371 1.14917407 3.64198224 0.0625 6.25 C-0.4634375 7.11625 -0.4634375 7.11625 -1 8 C-1.99 7.67 -2.98 7.34 -4 7 C-2.68 4.69 -1.36 2.38 0 0 Z " fill="#523EDB" transform="translate(649,505)"/>
<path d="M0 0 C2.46278801 2.46278801 2.99771255 4.70676982 4 8 C2.68 7.67 1.36 7.34 0 7 C-0.38133299 5.0085944 -0.71325582 3.00720923 -1 1 C-0.67 0.67 -0.34 0.34 0 0 Z " fill="#4E8FF9" transform="translate(650,503)"/>
</svg>
